:SAMPLES-PER-SECOND 30
:FULLY-SPECIFIED
:DEGREES
1222
root  69.8001 40.0213 -8.72882 175.596 -78.0063 -177.798
RightUpLeg  -3.04137 -10.3727 -4.1312
RightLeg  8.74736 -9.50408 5.10096
RightFoot  -6.70391 -0.254266 5.14454
RightToes  -1.16417e-010 0 -3.6325e-017
Spine  6.73707 -1.97385 3.76806
Spine1  10.8196 -2.54163 2.52021
HEad  -26.9837 2.08068 -3.9598
LeftShoulder1  9.77733 -14.2111 -48.1831
LeftArm  -4.67645 7.46711 -21.5498
LeftForeArm  29.1284 -7.639 -7.40095
LeftHand  -0.244104 0.0205437 5.32207
RightShoulder  6.68358 11.1097 39.617
RightArm  -12.1394 -25.1132 32.3021
RightForeArm  -30.7455 59.5566 21.9826
RightHand  0.898945 -1.93254 30.2137
LeftUpLeg  4.15591 12.2107 14.2731
LeftLeg  6.41285 24.0455 -0.670994
LeftFoot  0.127295 0.751089 -7.46631
LeftToes  -2.09216e-011 1.96776e-011 -5.83545e-012
1223
root  69.7415 39.9771 -9.01501 177.078 -77.6983 -179.168
RightUpLeg  -3.2017 -10.7267 -4.14788
RightLeg  9.31459 -8.68821 5.25298
RightFoot  -7.66941 -0.235986 5.72143
RightToes  -1.16417e-010 0 -3.6325e-017
Spine  6.96764 -1.79666 5.28314
Spine1  10.7015 -1.97009 1.54938
HEad  -27.853 1.45195 -4.16089
LeftShoulder1  9.72275 -14.2099 -47.914
LeftArm  -3.58988 10.2849 -21.0023
LeftForeArm  27.4813 -10.5947 -7.00671
LeftHand  -0.244104 0.0205437 5.32207
RightShoulder  6.62939 10.9783 39.6558
RightArm  -12.0119 -23.4328 32.7477
RightForeArm  -28.6034 59.8778 22.1648
RightHand  1.58873 0.558787 30.3405
LeftUpLeg  3.0115 13.8566 13.9274
LeftLeg  8.71393 22.8255 0.886839
LeftFoot  -0.8497 0.447496 -4.80511
LeftToes  -2.09216e-011 1.96776e-011 -5.83545e-012
1224
root  69.6777 39.9394 -9.26672 178.264 -77.6297 179.551
RightUpLeg  -3.17339 -11.0046 -4.20701
RightLeg  9.97947 -8.19677 5.26898
RightFoot  -8.55835 -0.209328 6.22305
RightToes  -1.16417e-010 0 -3.6325e-017
Spine  7.41476 -1.59749 6.6727
Spine1  10.5354 -1.41737 0.817403
HEad  -28.1627 0.590668 -4.42162
LeftShoulder1  9.66406 -14.1496 -47.7855
LeftArm  -3.00253 12.7168 -21.0549
LeftForeArm  23.6987 -13.7217 -6.07747
LeftHand  -0.244104 0.0205437 5.32207
RightShoulder  6.57363 10.862 39.6393
RightArm  -11.7619 -21.2298 32.7066
RightForeArm  -28.4394 60.0083 22.2785
RightHand  1.72364 1.00115 30.542
LeftUpLeg  1.6851 16.5815 13.3962
LeftLeg  11.4192 18.2807 2.24451
LeftFoot  -2.27834 0.296727 -3.6023
LeftToes  -2.09216e-011 1.96776e-011 -5.83545e-012
1225
root  69.5998 39.9111 -9.49511 179.848 -77.675 177.926
RightUpLeg  -3.18539 -11.15 -4.34177
RightLeg  10.6013 -7.95979 5.18079
RightFoot  -9.37463 -0.183837 6.99511
RightToes  -1.16417e-010 0 -3.6325e-017
Spine  7.74935 -1.34955 7.65285
Spine1  10.2708 -0.944053 0.49764
HEad  -27.4161 -0.668366 -4.18767
LeftShoulder1  9.61709 -14.0362 -47.8617
LeftArm  -3.50764 14.9206 -21.5962
LeftForeArm  20.072 -16.8898 -4.95262
LeftHand  -0.244104 0.0205437 5.32207
RightShoulder  6.56131 10.8287 39.6589
RightArm  -11.3665 -18.6949 32.1259
RightForeArm  -28.7076 59.8567 22.1511
RightHand  1.95677 1.80729 30.6789
LeftUpLeg  0.0342106 18.8568 12.3475
LeftLeg  14.1993 11.4154 2.80997
LeftFoot  -3.85936 0.330952 -4.7282
LeftToes  -2.09216e-011 1.96776e-011 -5.83545e-012
1226
root  69.5136 39.8966 -9.70852 -177.636 -77.8984 175.487
RightUpLeg  -3.314 -11.2308 -4.62603
RightLeg  11.1219 -7.96944 5.05467
RightFoot  -9.95558 -0.159161 7.51143
RightToes  -1.16417e-010 0 -3.6325e-017
Spine  7.8553 -1.14164 8.23738
Spine1  10.0125 -0.599814 0.353265
HEad  -26.7197 -1.88042 -3.9583
LeftShoulder1  9.52164 -13.8543 -47.883
LeftArm  -5.05629 16.749 -22.5096
LeftForeArm  18.2642 -19.7072 -4.17324
LeftHand  -0.244104 0.0205437 5.32207
RightShoulder  6.48866 10.6861 39.6094
RightArm  -11.1982 -15.8529 31.6747
RightForeArm  -29.1706 59.5256 21.8692
RightHand  2.14431 2.43814 30.8363
LeftUpLeg  -1.93806 18.2346 10.6507
LeftLeg  16.8735 6.49502 2.59058
LeftFoot  -5.01814 0.375691 -6.23405
LeftToes  -2.09216e-011 1.96776e-011 -5.83545e-012
